<svg xmlns="http://www.w3.org/2000/svg" display="none">
  <symbol id="phone" viewBox="0 0 15 15">
    <g>
      <path d="M14.5833 7.49999C14.5833 6.56978 14.4001 5.64874 14.0442 4.78927C13.6882 3.92996 13.1664 3.149 12.5087 2.49133C11.8509 1.8335 11.0701 1.31176 10.2107 0.955861C9.3513 0.599792 8.43021 0.416656 7.50001 0.416656V1.83332C8.24416 1.83332 8.98102 1.97997 9.66854 2.26462C10.3561 2.54944 10.9807 2.9669 11.5069 3.49313C12.0331 4.0192 12.4506 4.644 12.7353 5.33141C13.0201 6.01899 13.1667 6.75586 13.1667 7.49999H14.5833Z" fill="black"/>
      <path d="M0.416672 6.08332V2.54166C0.416672 2.15048 0.733809 1.83332 1.12501 1.83332H4.66667C5.05787 1.83332 5.37501 2.15048 5.37501 2.54166V5.37499C5.37501 5.76616 5.05787 6.08332 4.66667 6.08332H3.25001C3.25001 9.21289 5.78706 11.75 8.91667 11.75V10.3333C8.91667 9.94215 9.23381 9.62499 9.62501 9.62499H12.4583C12.8495 9.62499 13.1667 9.94215 13.1667 10.3333V13.875C13.1667 14.2662 12.8495 14.5833 12.4583 14.5833H8.91667C4.22226 14.5833 0.416672 10.7778 0.416672 6.08332Z" fill="black"/>
      <path d="M11.4265 5.87356C11.6401 6.38924 11.75 6.94194 11.75 7.49999H10.475C10.475 7.10933 10.3981 6.72248 10.2485 6.36157C10.099 6.00049 9.87991 5.67261 9.60365 5.39643C9.32739 5.12009 8.99944 4.90098 8.63849 4.75139C8.27756 4.60198 7.89068 4.52502 7.50001 4.52502V3.24999C8.05813 3.24999 8.61077 3.35998 9.12642 3.57355C9.64204 3.78712 10.1106 4.10013 10.5052 4.49476C10.8999 4.88939 11.2129 5.35787 11.4265 5.87356Z" fill="black"/>
    </g>
  </symbol>

  <symbol id="search" viewBox="0 0 19 20">
    <g>
      <path fill-rule="evenodd" clip-rule="evenodd" d="M14.319 13.4326C16.7628 10.2941 16.542 5.75344 13.6569 2.86826C10.5327 -0.255933 5.46734 -0.255933 2.34315 2.86826C-0.781049 5.99246 -0.781049 11.0578 2.34315 14.182C5.22833 17.0672 9.76899 17.2879 12.9075 14.8442C12.921 14.8594 12.9351 14.8744 12.9497 14.8891L17.1924 19.1317C17.5829 19.5222 18.2161 19.5222 18.6066 19.1317C18.9971 18.7412 18.9971 18.108 18.6066 17.7175L14.364 13.4749C14.3493 13.4602 14.3343 13.4461 14.319 13.4326ZM12.2426 4.28248C14.5858 6.62562 14.5858 10.4246 12.2426 12.7678C9.8995 15.1109 6.1005 15.1109 3.75736 12.7678C1.41421 10.4246 1.41421 6.62562 3.75736 4.28248C6.1005 1.93933 9.8995 1.93933 12.2426 4.28248Z"/>
    </g>
  </symbol>

  <symbol id="double-arrow" viewBox="0 0 284.929 284.929">
    <g>
      <path d="M135.899,167.877c1.902,1.902,4.093,2.851,6.567,2.851s4.661-0.948,6.562-2.851L282.082,34.829c1.902-1.903,2.847-4.093,2.847-6.567s-0.951-4.665-2.847-6.567L267.808,7.417c-1.902-1.903-4.093-2.853-6.57-2.853c-2.471,0-4.661,0.95-6.563,2.853L142.466,119.622L30.262,7.417c-1.903-1.903-4.093-2.853-6.567-2.853c-2.475,0-4.665,0.95-6.567,2.853L2.856,21.695C0.95,23.597,0,25.784,0,28.262c0,2.478,0.953,4.665,2.856,6.567L135.899,167.877z"/>
      <path d="M267.808,117.053c-1.902-1.903-4.093-2.853-6.57-2.853c-2.471,0-4.661,0.95-6.563,2.853L142.466,229.257L30.262,117.05c-1.903-1.903-4.093-2.853-6.567-2.853c-2.475,0-4.665,0.95-6.567,2.853L2.856,131.327C0.95,133.23,0,135.42,0,137.893c0,2.474,0.953,4.665,2.856,6.57l133.043,133.046c1.902,1.903,4.093,2.854,6.567,2.854s4.661-0.951,6.562-2.854l133.054-133.046c1.902-1.903,2.847-4.093,2.847-6.565c0-2.474-0.951-4.661-2.847-6.567L267.808,117.053z"/>
    </g>
  </symbol>

  <symbol id="arrow-left" viewBox="0 0 492 492">
    <g>
      <path d="M198.608,246.104L382.664,62.04c5.068-5.056,7.856-11.816,7.856-19.024c0-7.212-2.788-13.968-7.856-19.032l-16.128-16.12
      C361.476,2.792,354.712,0,347.504,0s-13.964,2.792-19.028,7.864L109.328,227.008c-5.084,5.08-7.868,11.868-7.848,19.084
      c-0.02,7.248,2.76,14.028,7.848,19.112l218.944,218.932c5.064,5.072,11.82,7.864,19.032,7.864c7.208,0,13.964-2.792,19.032-7.864
      l16.124-16.12c10.492-10.492,10.492-27.572,0-38.06L198.608,246.104z"/>
    </g>
  </symbol>

  <symbol id="arrow-right" viewBox="0 0 492.004 492.004">
    <g>
      <path d="M382.678,226.804L163.73,7.86C158.666,2.792,151.906,0,144.698,0s-13.968,2.792-19.032,7.86l-16.124,16.12
      c-10.492,10.504-10.492,27.576,0,38.064L293.398,245.9l-184.06,184.06c-5.064,5.068-7.86,11.824-7.86,19.028
      c0,7.212,2.796,13.968,7.86,19.04l16.124,16.116c5.068,5.068,11.824,7.86,19.032,7.86s13.968-2.792,19.032-7.86L382.678,265
      c5.076-5.084,7.864-11.872,7.848-19.088C390.542,238.668,387.754,231.884,382.678,226.804z"/>
    </g>
  </symbol>

  <symbol id="benefits-1" viewBox="0 0 64 64">
    <g>
      <path d="m32 3v-2c-17.094 0-31 13.906-31 31h2c0-15.99 13.01-29 29-29z"/><path d="m61 32c0 15.99-13.01 29-29 29v2c17.094 0 31-13.906 31-31z"/><path d="m59 32c0-5.62-1.71-11.006-4.944-15.577l-1.633 1.154c2.994 4.233 4.577 9.22 4.577 14.423 0 13.785-11.215 25-25 25s-25-11.215-25-25 11.215-25 25-25c6.045 0 11.728 2.115 16.25 6h-5.25v2h8c.553 0 1-.447 1-1v-8h-2v5.884c-4.954-4.45-11.268-6.884-18-6.884-14.888 0-27 12.112-27 27s12.112 27 27 27 27-12.112 27-27z"/><path d="m32 12c-11.028 0-20 8.972-20 20s8.972 20 20 20 20-8.972 20-20-8.972-20-20-20zm17.949 21c-.233 4.208-1.91 8.028-4.554 10.981l-2.688-2.688-1.414 1.414 2.688 2.688c-2.953 2.644-6.773 4.321-10.981 4.554v-3.949h-2v3.949c-4.208-.233-8.028-1.91-10.981-4.554l2.688-2.688-1.414-1.414-2.688 2.688c-2.644-2.953-4.321-6.773-4.554-10.981h3.949v-2h-3.949c.233-4.208 1.91-8.028 4.554-10.981l2.688 2.688 1.414-1.414-2.688-2.688c2.953-2.644 6.773-4.321 10.981-4.554v3.949h2v-3.949c4.208.233 8.028 1.91 10.981 4.554l-2.688 2.688 1.414 1.414 2.688-2.688c2.644 2.953 4.321 6.773 4.554 10.981h-3.949v2z"/><path d="m30 26h-7c-.553 0-1 .447-1 1v3h2v-2h5v2.341l-6.394 2.74c-.368.157-.606.519-.606.919v3c0 .553.447 1 1 1h8v-2h-7v-1.341l6.394-2.74c.368-.157.606-.519.606-.919v-4c0-.553-.447-1-1-1z"/><path d="m40 32h-5v-6h-2v7c0 .553.447 1 1 1h6v4h2v-12h-2z"/>
    </g>
  </symbol>

  <symbol id="benefits-2" viewBox="0 0 158 134">
    <g>
      <path d="M149.497 0H54.9834C53.7024 0 52.6643 1.03811 52.6643 2.31908C52.6643 3.60005 53.7024 4.63816 54.9834 4.63816H149.497C151.628 4.63816 153.362 6.37184 153.362 8.50299V106.962C153.362 109.093 151.628 110.827 149.497 110.827H139.397C143.935 107.088 146.833 101.428 146.833 95.103C146.833 94.098 146.757 93.1108 146.616 92.1442V23.1664C146.616 21.8855 145.578 20.8474 144.297 20.8474C140.357 20.8474 137.152 17.6426 137.152 13.7034C137.152 12.4224 136.114 11.3843 134.833 11.3843H23.1664C21.8855 11.3843 20.8474 12.4224 20.8474 13.7034C20.8474 17.6426 17.6423 20.8474 13.7031 20.8474C12.4221 20.8474 11.384 21.8855 11.384 23.1664V92.2979C11.384 93.5789 12.4221 94.617 13.7031 94.617C17.6423 94.617 20.8474 97.8214 20.8474 101.761C20.8474 103.042 21.8855 104.08 23.1664 104.08H74.8047C76.0856 104.08 77.1237 103.042 77.1237 101.761C77.1237 100.48 76.0856 99.4419 74.8047 99.4419H25.2562C24.3264 94.8018 20.6628 91.1379 16.0222 90.2081V25.2562C20.6625 24.3264 24.3264 20.6628 25.2562 16.0225H132.743C133.673 20.6625 137.337 24.3264 141.978 25.2562V81.9255C138.239 77.5308 132.674 74.7355 126.465 74.7355C115.235 74.7355 106.098 83.8724 106.098 95.103C106.098 96.592 106.263 98.0427 106.568 99.4419H84.0807C82.7997 99.4419 81.7616 100.48 81.7616 101.761C81.7616 103.042 82.7997 104.08 84.0807 104.08H108.189C109.477 106.692 111.306 108.992 113.533 110.827H8.50299C6.37184 110.827 4.63816 109.093 4.63816 106.962V8.50299C4.63816 6.37184 6.37184 4.63816 8.50299 4.63816H45.7077C46.9886 4.63816 48.0268 3.60005 48.0268 2.31908C48.0268 1.03811 46.9886 0 45.7077 0H8.50299C3.81453 0 0 3.81422 0 8.50299V106.962C0 111.65 3.81453 115.465 8.50299 115.465H114.125V130.773C114.091 132.321 115.837 133.597 117.439 132.868L126.466 128.581L135.492 132.868C136.773 133.563 138.842 132.538 138.806 130.773V115.465H149.498C154.186 115.465 158.001 111.65 158.001 106.962V8.50299C158 3.81453 154.185 0 149.497 0ZM110.736 95.103C110.736 86.4297 117.792 79.3734 126.466 79.3734C135.139 79.3734 142.195 86.4297 142.195 95.103C142.195 103.776 135.139 110.833 126.466 110.833C117.792 110.832 110.736 103.776 110.736 95.103ZM127.46 123.918C126.831 123.619 126.1 123.619 125.471 123.918L118.763 127.104V113.954C121.141 114.929 123.741 115.471 126.465 115.471C129.19 115.471 131.79 114.929 134.168 113.954V127.104L127.46 123.918Z" fill="white"/>
      <path d="M98.5633 36.6134C99.8443 36.6134 100.882 35.5753 100.882 34.2943C100.882 33.0133 99.8443 31.9752 98.5633 31.9752H59.4367C58.1557 31.9752 57.1176 33.0133 57.1176 34.2943C57.1176 35.5753 58.1557 36.6134 59.4367 36.6134H98.5633Z" fill="#1170FF"/>
      <path d="M27.5701 49.9197C27.5701 51.2006 28.6082 52.2387 29.8891 52.2387H128.111C129.392 52.2387 130.43 51.2006 130.43 49.9197C130.43 48.6387 129.392 47.6006 128.111 47.6006H29.8891C28.6082 47.6006 27.5701 48.6387 27.5701 49.9197Z" fill="#1170FF"/>
      <path d="M29.8891 67.8638H128.111C129.392 67.8638 130.43 66.8257 130.43 65.5447C130.43 64.2637 129.392 63.2256 128.111 63.2256H29.8891C28.6082 63.2256 27.5701 64.2637 27.5701 65.5447C27.5701 66.8257 28.6082 67.8638 29.8891 67.8638Z" fill="#1170FF"/>
      <path d="M29.8892 83.4891H74.8047C76.0856 83.4891 77.1237 82.451 77.1237 81.17C77.1237 79.8891 76.0856 78.851 74.8047 78.851H29.8892C28.6082 78.851 27.5701 79.8891 27.5701 81.17C27.5701 82.451 28.6082 83.4891 29.8892 83.4891Z" fill="#1170FF"/>
      <path d="M126.465 106.433C132.713 106.433 137.796 101.351 137.796 95.103C137.796 88.8556 132.713 83.7727 126.465 83.7727C120.218 83.7727 115.135 88.8556 115.135 95.103C115.135 101.351 120.218 106.433 126.465 106.433ZM126.465 88.4106C130.156 88.4106 133.158 91.4129 133.158 95.103C133.158 98.7932 130.156 101.796 126.465 101.796C122.775 101.796 119.773 98.7932 119.773 95.103C119.773 91.4129 122.775 88.4106 126.465 88.4106Z" fill="white"/>
    </g>
  </symbol>

   <symbol id="benefits-3" viewBox="0 0 155 156">
    <g>
      <path d="M122.727 123.906C121.405 122.895 119.515 123.149 118.505 124.47C117.495 125.792 117.748 127.682 119.069 128.692L124.216 132.626C124.76 133.042 125.403 133.245 126.043 133.245C126.867 133.245 127.685 132.908 128.277 132.255L138.114 121.393C139.231 120.16 139.137 118.255 137.904 117.139C136.671 116.022 134.766 116.116 133.65 117.349L125.672 126.158L122.727 123.906Z" fill="#1170FF"/>
      <path d="M154.704 107.83C154.67 106.294 153.485 105.031 151.956 104.897C144.791 104.271 135.975 99.4582 129.494 92.637C128.925 92.0388 128.136 91.7 127.311 91.6997C127.311 91.6997 127.311 91.6997 127.31 91.6997C126.486 91.6997 125.697 92.0379 125.128 92.6355C122.219 95.6933 118.842 98.3457 115.358 100.4C109.243 93.5742 101.718 88.5452 92.8974 85.3796C92.8206 85.3486 92.7429 85.3209 92.6633 85.2962C91.9764 85.0528 91.2813 84.8206 90.5786 84.5996C98.0381 77.16 103.056 67.3834 103.056 58.6129V53.8812C106.582 52.3458 109.055 48.8263 109.055 44.7385C109.055 40.4923 106.382 36.8605 102.632 35.4314C101.084 20.4026 90.4952 7.76904 75.9507 3.58937C75.5209 1.5423 73.7021 0 71.5295 0H60.6159C58.5204 0 56.7588 1.43599 56.2504 3.37463C49.0961 5.28256 42.5612 9.35501 37.6618 15.017C32.6888 20.764 29.5964 27.941 28.8109 35.4329C25.0586 36.8629 22.3851 40.4938 22.3851 44.7388C22.3851 48.8281 24.8617 52.3485 28.3926 53.883V58.6132C28.3926 67.3755 33.411 77.1558 40.8702 84.6005C40.188 84.8149 39.5125 85.0393 38.8448 85.2748C38.7135 85.3121 38.5858 85.3582 38.4614 85.4127C28.589 88.9741 20.3468 94.8692 13.8921 103.01C7.6843 110.84 3.27123 120.509 0.775717 131.751C-0.11244 135.769 -0.78044 140.818 1.95902 144.229C4.63494 147.561 9.42297 147.988 13.2957 147.988H32.9969C34.6603 147.988 36.0086 146.639 36.0086 144.976C36.0086 143.313 34.6603 141.964 32.9969 141.964H13.2957C9.69282 141.964 7.45873 141.457 6.6555 140.457C5.80469 139.398 5.80529 136.906 6.6564 133.054C9.78649 118.955 17.4399 101.703 35.8797 92.992C35.3126 103.167 40.8256 109.817 44.3297 114.038C44.8661 114.684 45.648 115.077 46.4867 115.122C47.3249 115.168 48.1447 114.859 48.7467 114.274L65.7202 97.7671L82.7018 114.274C83.2653 114.822 84.0188 115.126 84.8009 115.126C84.8549 115.126 84.9088 115.125 84.9633 115.122C85.802 115.077 86.5842 114.683 87.1203 114.036C90.6196 109.811 96.1244 103.157 95.5624 93.0038C100.912 95.5415 105.639 98.9354 109.703 103.163C107.276 104.103 104.89 104.703 102.664 104.897C101.136 105.031 99.9517 106.293 99.9159 107.827C99.6638 118.595 101.458 126.31 106.314 135.339C106.355 135.416 107.996 138.357 110.552 141.965H60.2629C58.5996 141.965 57.2512 143.314 57.2512 144.977C57.2512 146.64 58.5996 147.988 60.2629 147.988H115.336C118.967 152.001 123.249 155.417 127.31 155.417C137.108 155.417 148.198 135.54 148.305 135.341C153.152 126.31 154.946 118.597 154.704 107.83ZM96.484 34.7812H79.9021C76.7693 26.5974 76.1766 19.8491 76.0703 9.9426C86.9332 13.7847 94.8303 23.3698 96.484 34.7812ZM62.1203 6.02344H70.0248C70.0438 17.6812 70.3393 25.5767 73.4952 34.7812H58.6559C61.8064 25.5764 62.1016 17.68 62.1203 6.02344ZM56.0779 9.70497C55.9785 19.7418 55.4026 26.5318 52.2506 34.7815H34.9627C36.6806 23.2216 44.9905 13.3766 56.0779 9.70497ZM32.3512 40.8046H52.499C52.6764 40.9486 52.8481 40.9669 52.992 40.8046H99.097C101.266 40.8046 103.031 42.5692 103.031 44.7388C103.031 46.913 101.267 48.6818 99.097 48.6818H32.3512C30.1774 48.6818 28.4086 46.913 28.4086 44.7388C28.4086 42.5695 30.177 40.8046 32.3512 40.8046ZM34.416 58.6132V54.7049H97.0319V58.6132C97.0319 70.0957 85.9078 84.2969 73.226 89.0045C67.6769 91.0666 63.7373 91.0648 58.1752 88.9979C45.5185 84.271 34.416 70.0722 34.416 58.6132ZM46.9153 107.653C43.7982 103.583 40.7967 98.2403 42.2393 90.4848C43.5678 90.0559 44.9405 89.6647 46.3638 89.3186C49.4009 91.5467 52.6764 93.3742 56.0721 94.6425C57.1651 95.0484 58.2168 95.383 59.2456 95.6613L46.9153 107.653ZM84.5299 107.651L72.1921 95.6577C73.2076 95.3821 74.2455 95.0518 75.3231 94.6512C78.7356 93.3845 82.0272 91.5533 85.0783 89.318C86.4842 89.6602 87.8591 90.0478 89.2005 90.4821C90.6464 98.2267 87.6461 103.575 84.5299 107.651ZM142.996 132.494C139.435 139.141 131.094 149.393 127.31 149.393C123.526 149.393 115.185 139.141 111.621 132.49C107.641 125.089 106.008 118.918 105.919 110.515C109.168 109.897 112.551 108.685 115.877 106.991C115.994 106.941 116.108 106.881 116.22 106.814C120.103 104.795 123.902 102.123 127.309 98.948C133.723 104.932 141.532 109.153 148.698 110.516C148.603 118.92 146.97 125.092 142.996 132.494Z" fill="white"/>
      <path d="M46.6298 141.964C44.9664 141.964 43.618 143.313 43.618 144.976C43.618 146.639 44.9664 147.988 46.6298 147.988H46.6469C48.3103 147.988 49.6499 146.639 49.6499 144.976C49.6499 143.313 48.2931 141.964 46.6298 141.964Z" fill="white"/>
    </g>
  </symbol>

  <symbol id="benefits-4" viewBox="0 0 138 138">
    <g>
      <path d="M69 0C31.8597 0 0 31.706 0 69C0 106.137 31.7015 138 69 138C106.14 138 138 106.294 138 69C138 31.8626 106.299 0 69 0ZM132.543 66.3047H120.947C120.322 54.5097 115.605 43.3342 107.459 34.3528L115.509 26.303C125.771 37.4422 131.869 51.7616 132.543 66.3047ZM71.6953 5.45693C86.2381 6.1313 100.558 12.2286 111.697 22.4913L103.647 30.5411C94.6658 22.3948 83.4903 17.6783 71.6953 17.0532V5.45693ZM66.3047 5.45693V17.0532C54.5097 17.6783 43.3342 22.3948 34.3528 30.5409L26.303 22.4913C37.4422 12.2286 51.7619 6.1313 66.3047 5.45693ZM22.4913 26.303L30.5411 34.3528C22.3948 43.3342 17.6783 54.5097 17.0532 66.3047H5.45693C6.1313 51.7616 12.2286 37.4422 22.4913 26.303ZM5.45693 71.6953H17.0532C17.6783 83.4903 22.3948 94.6658 30.5409 103.647L22.491 111.697C12.2286 100.558 6.1313 86.2384 5.45693 71.6953ZM66.3047 132.543C51.7619 131.869 37.4422 125.771 26.303 115.509L34.3528 107.459C43.3342 115.605 54.5097 120.321 66.3047 120.946V132.543ZM22.3711 69C22.3711 43.7565 43.7166 22.3711 69 22.3711C94.2435 22.3711 115.629 43.7166 115.629 69C115.629 94.2435 94.2834 115.629 69 115.629C43.7565 115.629 22.3711 94.2834 22.3711 69ZM71.6953 132.543V120.947C83.4903 120.322 94.6658 115.605 103.647 107.459L111.697 115.509C100.558 125.771 86.2381 131.869 71.6953 132.543ZM115.509 111.697L107.459 103.647C115.605 94.6658 120.321 83.4633 120.946 71.6684H132.543C131.869 86.2114 125.771 100.558 115.509 111.697Z" fill="white"/>
      <path d="M60.2109 85H53.4375V58.8906L45.3516 61.3984V55.8906L59.4844 50.8281H60.2109V85ZM72.3281 68.2188L74.2969 50.875H93.4219V56.5234H79.8516L79.0078 63.8594C80.6172 63 82.3281 62.5703 84.1406 62.5703C87.3906 62.5703 89.9375 63.5781 91.7812 65.5938C93.625 67.6094 94.5469 70.4297 94.5469 74.0547C94.5469 76.2578 94.0781 78.2344 93.1406 79.9844C92.2188 81.7188 90.8906 83.0703 89.1562 84.0391C87.4219 84.9922 85.375 85.4688 83.0156 85.4688C80.9531 85.4688 79.0391 85.0547 77.2734 84.2266C75.5078 83.3828 74.1094 82.2031 73.0781 80.6875C72.0625 79.1719 71.5234 77.4453 71.4609 75.5078H78.1641C78.3047 76.9297 78.7969 78.0391 79.6406 78.8359C80.5 79.6172 81.6172 80.0078 82.9922 80.0078C84.5234 80.0078 85.7031 79.4609 86.5312 78.3672C87.3594 77.2578 87.7734 75.6953 87.7734 73.6797C87.7734 71.7422 87.2969 70.2578 86.3438 69.2266C85.3906 68.1953 84.0391 67.6797 82.2891 67.6797C80.6797 67.6797 79.375 68.1016 78.375 68.9453L77.7188 69.5547L72.3281 68.2188Z" fill="#1170FF"/>
    </g>
  </symbol>

  <symbol id="benefits-5" viewBox="0 0 151 151">
    <g>
      <path d="M124.714 18.2453C111.037 6.47973 93.5598 0 75.5 0C55.3332 0 36.3736 7.85348 22.1132 22.1132C7.85348 36.3736 0 55.3332 0 75.5C0 85.7474 2.01963 95.688 6.00284 105.046C6.36117 105.888 7.17899 106.392 8.03928 106.392C8.328 106.392 8.62204 106.335 8.90458 106.215C10.0288 105.736 10.552 104.437 10.0734 103.313C6.3246 94.5062 4.42383 85.1487 4.42383 75.5C4.42383 56.515 11.8169 38.666 25.2418 25.2418C38.666 11.8169 56.515 4.42383 75.5 4.42383C92.5014 4.42383 108.955 10.5234 121.828 21.5989C122.754 22.3949 124.151 22.2908 124.948 21.3647C125.744 20.4384 125.64 19.0419 124.714 18.2453Z" fill="white"/>
      <path d="M132.101 25.5409C131.292 24.6251 129.895 24.5387 128.979 25.3474C128.064 26.1561 127.977 27.5537 128.786 28.4694C140.258 41.4578 146.576 58.1604 146.576 75.5C146.576 94.485 139.183 112.334 125.758 125.758C112.334 139.183 94.485 146.576 75.5 146.576C63.0864 146.576 50.869 143.329 40.1687 137.186C29.7859 131.226 21.0023 122.67 14.7676 112.442C14.1315 111.399 12.7707 111.069 11.7273 111.705C10.6844 112.341 10.3544 113.702 10.99 114.745C17.6113 125.606 26.9393 134.693 37.9662 141.023C49.336 147.55 62.3149 151 75.5 151C95.6668 151 114.626 143.147 128.887 128.887C143.147 114.626 151 95.6668 151 75.5C151 57.081 144.288 39.3382 132.101 25.5409Z" fill="white"/>
      <path d="M75.5 13.1257C41.1068 13.1257 13.1258 41.1067 13.1258 75.4999C13.1258 109.893 41.1068 137.874 75.5 137.874C109.893 137.874 137.874 109.893 137.874 75.4999C137.874 41.1067 109.893 13.1257 75.5 13.1257ZM75.5 133.45C43.5458 133.45 17.5496 107.454 17.5496 75.4999C17.5496 43.5457 43.5458 17.5496 75.5 17.5496C107.454 17.5496 133.45 43.5457 133.45 75.4999C133.45 107.454 107.454 133.45 75.5 133.45Z" fill="white"/>
      <path d="M76.8882 91.7492L76.73 101L45 100.435L45.5538 68.0569L54.6196 68.2184L54.3358 84.8039L90.1259 49.5361L74.1118 49.2508L74.27 40L106 40.5652L105.446 72.9431L96.3804 72.7816L96.6683 55.9513L60.6341 91.4597L76.8882 91.7492Z" fill="#1170FF"/>
    </g>
  </symbol>

  <symbol id="benefits-6" viewBox="0 0 174 174">
    <g>
      <path d="M172.585 54.6854C169.197 44.2879 158.659 37.6468 147.817 38.2014C150.484 34.1744 151.891 29.5154 151.891 24.6345C151.891 11.051 140.84 0 127.257 0C121.027 0 115.086 2.32865 110.52 6.55849L42.2311 62.6157C42.1465 62.685 42.0697 62.7601 41.9963 62.8376C35.0066 68.9159 30.5803 77.87 30.5803 87.8388C30.5803 90.8633 30.9901 93.7937 31.753 96.5794C31.753 96.5794 12.4493 114.728 8.19055 119.065C3.5679 123.772 0 132.516 0 140.849C0 159.116 14.8615 173.978 33.1292 173.978C46.885 173.978 58.708 165.55 63.7099 153.587C68.7114 165.55 80.5344 173.978 94.2899 173.978C107.442 173.978 118.828 166.274 124.174 155.142L163.243 88.0185C164.9 85.1706 160.495 82.6062 158.837 85.4544L127.389 139.486C126.671 121.848 112.101 107.72 94.2899 107.72C92.8386 107.72 91.4087 107.815 90.006 107.996C90.006 107.996 134.924 54.4099 142.986 44.5101C152.419 40.1036 164.685 46.8918 167.738 56.2645C169.467 61.5725 168.999 67.4398 166.453 72.3619C164.94 75.2889 169.467 77.6301 170.981 74.7034C174.149 68.5775 174.734 61.2813 172.585 54.6854ZM113.833 10.4329C117.765 7.20377 122.039 5.09701 127.257 5.09701C138.03 5.09701 146.795 13.8615 146.795 24.6349C146.795 28.8735 145.462 32.9019 142.94 36.2883C142.94 36.2883 99.6692 88.3124 96.5723 92.0509C96.7483 90.6713 96.8387 89.2652 96.8387 87.8388C96.8387 69.5714 81.9772 54.7096 63.7099 54.7096C62.3126 54.7096 60.9354 54.7976 59.5833 54.9661L113.833 10.4329ZM63.7095 59.8066C79.1664 59.8066 91.7414 72.3816 91.7414 87.8388C91.7414 103.021 78.903 115.871 63.7095 115.871C48.2527 115.871 35.6773 103.296 35.6773 87.8388C35.6777 72.3819 48.2527 59.8066 63.7095 59.8066ZM68.0216 120.687C66.2811 122.95 64.8254 125.441 63.7095 128.11C62.5936 125.441 61.1379 122.95 59.3975 120.687C60.8093 120.871 62.2484 120.968 63.7095 120.968C65.1707 120.968 66.6101 120.871 68.0216 120.687ZM33.6678 101.794C34.6994 104.006 35.9679 106.085 37.4412 108C36.0294 107.816 34.5903 107.72 33.1292 107.72C30.965 107.72 28.8491 107.931 26.7994 108.329L33.6678 101.794ZM33.1292 168.881C17.6723 168.881 5.09701 156.306 5.09701 140.849C5.09701 133.687 7.79978 127.148 12.2342 122.188C17.7094 116.405 25.0606 112.817 33.1292 112.817C48.586 112.817 61.1614 125.392 61.1614 140.849C61.1614 156.306 48.586 168.881 33.1292 168.881ZM122.322 140.849C122.322 156.305 109.747 168.881 94.2899 168.881C78.833 168.881 66.258 156.306 66.258 140.849C66.258 125.391 78.833 112.816 94.2899 112.816C109.747 112.817 122.322 125.392 122.322 140.849Z" fill="white"/>
      <path d="M63.7089 112.473C77.2921 112.473 88.3431 101.422 88.3431 87.8385C88.3431 74.255 77.2924 63.2043 63.7089 63.2043C58.9935 63.2043 54.4021 64.553 50.4309 67.1042C47.6584 68.8851 50.4135 73.1734 53.1856 71.3925C56.3335 69.3704 59.9725 68.3014 63.7089 68.3014C74.4816 68.3014 83.2461 77.0655 83.2461 87.8385C83.2461 98.6116 74.4819 107.376 63.7089 107.376C52.9359 107.376 44.1721 98.6116 44.1721 87.8385C44.1721 85.3522 44.6407 82.9199 45.5649 80.6099C46.7889 77.5507 42.0565 75.6574 40.8325 78.7169C39.6663 81.6321 39.0751 84.7011 39.0751 87.8389C39.0751 101.422 50.1257 112.473 63.7089 112.473Z" fill="#1170FF"/>
      <path d="M33.1282 116.215C19.545 116.215 8.49438 127.265 8.49438 140.849C8.49438 154.433 19.545 165.483 33.1282 165.483C46.7114 165.483 57.7624 154.432 57.7624 140.849C57.7624 127.265 46.7114 116.215 33.1282 116.215ZM33.1282 160.386C22.3555 160.386 13.5914 151.622 13.5914 140.849C13.5914 130.076 22.3555 121.312 33.1282 121.312C43.9009 121.312 52.6654 130.076 52.6654 140.849C52.6654 151.622 43.9009 160.386 33.1282 160.386Z" fill="#1170FF"/>
      <path d="M94.2897 165.483C107.873 165.483 118.924 154.432 118.924 140.849C118.924 127.265 107.873 116.214 94.2897 116.214C80.7065 116.214 69.6555 127.265 69.6555 140.849C69.6555 154.432 80.7065 165.483 94.2897 165.483ZM94.2897 121.312C105.062 121.312 113.827 130.076 113.827 140.849C113.827 151.622 105.062 160.386 94.2897 160.386C83.517 160.386 74.7525 151.622 74.7525 140.849C74.7525 130.075 83.517 121.312 94.2897 121.312Z" fill="#1170FF"/>
    </g>
  </symbol>

  <symbol id="about-1" viewBox="0 0 56 47">
    <g>
      <path d="M47.5954 24.4426H42.1368C41.3939 24.4426 40.6747 24.5441 39.9901 24.7308C38.6398 22.0763 35.883 20.2524 32.7063 20.2524H23.0576C19.8809 20.2524 17.1241 22.0763 15.7738 24.7308C15.0893 24.5441 14.37 24.4426 13.6271 24.4426H8.16854C3.66441 24.4426 0 28.107 0 32.6111V41.3371C0 44.0396 2.19865 46.2382 4.90113 46.2382H50.8628C53.5653 46.2382 55.7639 44.0396 55.7639 41.3371V32.6111C55.7639 28.107 52.0995 24.4426 47.5954 24.4426ZM14.8891 28.4212V42.9709H4.90113C4.0003 42.9709 3.26742 42.238 3.26742 41.3372V32.6112C3.26742 29.9088 5.46606 27.7101 8.16854 27.7101H13.6271C14.0706 27.7101 14.5 27.7703 14.9089 27.8813C14.8971 28.06 14.8891 28.2398 14.8891 28.4212ZM37.6074 42.9709H18.1565V28.4211C18.1565 25.7186 20.3551 23.52 23.0576 23.52H32.7063C35.4088 23.52 37.6074 25.7186 37.6074 28.4211V42.9709ZM52.4965 41.3372C52.4965 42.238 51.7636 42.9709 50.8628 42.9709H40.8749V28.4211C40.8749 28.2395 40.8668 28.0598 40.855 27.8812C41.2639 27.7703 41.6933 27.71 42.1368 27.71H47.5954C50.2979 27.71 52.4965 29.9086 52.4965 32.6111V41.3372Z" fill="white"/>
      <path d="M10.8979 9.01514C6.89545 9.01514 3.63925 12.2713 3.63925 16.2738C3.63914 20.2763 6.89545 23.5325 10.8979 23.5325C14.9003 23.5325 18.1566 20.2763 18.1566 16.2738C18.1566 12.2713 14.9004 9.01514 10.8979 9.01514ZM10.8978 20.2651C8.697 20.2651 6.90656 18.4746 6.90656 16.2738C6.90656 14.073 8.697 12.2826 10.8978 12.2826C13.0986 12.2826 14.8891 14.073 14.8891 16.2738C14.8891 18.4746 13.0986 20.2651 10.8978 20.2651Z" fill="white"/>
      <path d="M27.882 0C22.5347 0 18.1845 4.35024 18.1845 9.69748C18.1845 15.0447 22.5347 19.395 27.882 19.395C33.2292 19.395 37.5794 15.0447 37.5794 9.69748C37.5794 4.35035 33.2292 0 27.882 0ZM27.882 16.1275C24.3364 16.1275 21.4519 13.2431 21.4519 9.69748C21.4519 6.152 24.3364 3.26742 27.882 3.26742C31.4275 3.26742 34.312 6.15189 34.312 9.69748C34.312 13.2431 31.4275 16.1275 27.882 16.1275Z" fill="white"/>
      <path d="M44.866 9.01514C40.8636 9.01514 37.6073 12.2713 37.6073 16.2738C37.6074 20.2763 40.8636 23.5325 44.866 23.5325C48.8685 23.5325 52.1247 20.2763 52.1247 16.2738C52.1247 12.2713 48.8685 9.01514 44.866 9.01514ZM44.866 20.2651C42.6653 20.2651 40.8747 18.4746 40.8747 16.2738C40.8748 14.073 42.6653 12.2826 44.866 12.2826C47.0668 12.2826 48.8572 14.073 48.8572 16.2738C48.8572 18.4746 47.0668 20.2651 44.866 20.2651Z" fill="white"/>
    </g>
  </symbol>

  <symbol id="about-2" viewBox="0 0 58 53">
    <g>
      <path d="M51.5941 21.7034L57.418 15.9312C58.0868 15.2684 58.0876 14.1868 57.4202 13.5229C46.0881 2.25156 48.4365 4.59089 45.3728 1.52722C44.7101 0.864636 43.6358 0.864636 42.9731 1.52722L38.6147 5.88528C37.5576 6.94233 33.9489 6.55555 30.5906 7.27492C27.7271 5.61039 25.3686 5.70417 23.4533 5.78075C21.7571 5.84874 20.8779 5.86503 19.7132 5.13039C19.1297 4.74395 19.1397 4.70877 14.9278 0.496977C14.2651 -0.165715 13.1907 -0.165602 12.528 0.496977C11.3427 1.6822 0.607148 12.3861 0.498773 12.494C0.179192 12.8127 -0.000338898 13.2455 4.80285e-07 13.6969C0.000339858 14.1482 0.180436 14.5807 0.50047 14.8989L6.12498 20.4915C6.30202 20.7258 6.45508 21.6914 6.55656 22.3317C6.77172 23.6893 7.049 25.4345 8.01475 27.017L7.84506 27.1867C5.85552 29.1762 5.85529 32.3963 7.84506 34.3859C8.76625 35.3072 9.95577 35.8001 11.1643 35.8662C11.2304 37.0748 11.7234 38.2642 12.6445 39.1855C13.5397 40.0807 14.7097 40.6009 15.9641 40.6685C16.0307 41.8762 16.5236 43.0645 17.4441 43.985C18.3653 44.9063 19.5547 45.3992 20.7634 45.4652C20.8294 46.6739 21.3223 47.8633 22.2436 48.7845C23.8312 50.3721 26.1728 50.6735 28.0388 49.7801L29.443 51.1842C31.4324 53.1738 34.6526 53.174 36.6422 51.1842C37.5374 50.2891 38.0575 49.1192 38.1252 47.8648C39.3329 47.7981 40.5213 47.3052 41.4418 46.3847C42.3623 45.4641 42.8551 44.2757 42.9218 43.0681C44.1763 43.0005 45.3461 42.4804 46.2413 41.5853C47.1625 40.664 47.6555 39.4745 47.7215 38.266C48.9302 38.2 50.1196 37.7071 51.0408 36.7858C53.0256 34.801 53.0256 31.5713 51.0408 29.5865L49.7076 28.2534C51.3326 25.6783 51.0015 22.782 51.5693 21.7344C51.5774 21.7234 51.5856 21.7117 51.5941 21.7034ZM36.743 9.99051L48.1097 21.3573C47.7444 22.7745 47.7765 24.351 47.1959 25.7417L36.6422 15.188C34.6528 13.1985 31.4325 13.1982 29.4429 15.188L24.6434 19.9875C23.98 20.6507 22.9069 20.6507 22.2436 19.9875C21.5821 19.3258 21.582 18.2493 22.2436 17.5877L27.0432 12.7881C29.7695 10.0618 33.5169 10.3801 36.743 9.99051ZM6.69864 16.276L4.10184 13.6939C6.39422 11.4083 11.359 6.45793 13.7268 4.09552L16.303 6.67162L6.69864 16.276ZM12.6444 31.9862C11.9828 32.6478 10.9063 32.6478 10.2446 31.9862C9.58144 31.3229 9.58155 30.2497 10.2447 29.5864C11.169 28.6621 11.6835 28.1476 12.6444 27.1867C13.306 26.525 14.3826 26.5251 15.0442 27.1867C15.7074 27.8499 15.7074 28.9231 15.0442 29.5864L12.6444 31.9862ZM17.444 36.7858C16.7808 37.4489 15.7075 37.449 15.0443 36.7858C14.3826 36.1241 14.3826 35.0476 15.0443 34.3859L17.444 31.9862C18.1058 31.3245 19.1823 31.3247 19.8438 31.9862C20.5054 32.6478 20.5054 33.7243 19.8438 34.3859L17.444 36.7858ZM19.8439 41.5853C19.1822 40.9237 19.1822 39.8471 19.8438 39.1855L22.2436 36.7858C22.9069 36.1225 23.98 36.1225 24.6434 36.7858C25.3066 37.4491 25.3066 38.5223 24.6434 39.1855L22.2436 41.5853C21.582 42.2468 20.5054 42.2467 19.8439 41.5853ZM29.4427 43.9849L27.0429 46.3846C26.3797 47.048 25.3066 47.048 24.6433 46.3847C23.9817 45.7231 23.9817 44.6466 24.6433 43.985L27.043 41.5853C27.0431 41.5851 27.0432 41.585 27.0433 41.5849C27.705 40.9237 28.7808 40.9238 29.4425 41.585C29.4426 41.585 29.4427 41.5851 29.4427 41.5853L29.4433 41.5857C30.1044 42.2474 30.1042 43.3235 29.4427 43.9849ZM34.2423 48.7846C33.5792 49.4477 32.506 49.4478 31.8426 48.7846L30.6427 47.5847L31.8426 46.3848C32.2632 45.9642 32.5938 45.4873 32.8361 44.9786L34.2423 46.3848C34.9056 47.048 34.9056 48.1212 34.2423 48.7846ZM48.641 34.3859C47.9795 35.0475 46.903 35.0475 46.2413 34.3859L38.0231 26.1678C37.3605 25.5051 36.2861 25.5051 35.6234 26.1678C34.9607 26.8305 34.9607 27.9048 35.6234 28.5675L43.8415 36.7857C44.5031 37.4473 44.5031 38.5238 43.8415 39.1854C43.1786 39.8482 42.1057 39.8488 41.4421 39.1857C41.442 39.1856 41.4419 39.1855 41.4418 39.1854C41.4416 39.1853 41.4415 39.1851 41.4412 39.1849L33.3296 31.0734C32.6671 30.4107 31.5926 30.4107 30.9299 31.0734C30.2672 31.736 30.2672 32.8104 30.9299 33.4731L39.0419 41.5851C39.7036 42.2468 39.7036 43.3233 39.0419 43.9849C38.3803 44.6466 37.3039 44.6466 36.6421 43.9849L31.8426 39.1853C30.9221 38.2647 29.7337 37.7719 28.5261 37.7053C28.4584 36.4508 27.9383 35.281 27.0431 34.3858C26.1479 33.4906 24.9781 32.9705 23.7237 32.9028C23.657 31.6951 23.1641 30.5068 22.2436 29.5863C21.3485 28.6911 20.1786 28.171 18.9242 28.1033C18.8575 26.8956 18.3647 25.7072 17.444 24.7867C15.556 22.8989 12.5426 22.8081 10.5448 24.5118C10.2059 23.6694 10.0551 22.7254 9.90848 21.8003C9.73076 20.679 9.55926 19.6077 9.0321 18.7421L19.1306 8.64352C20.7087 9.28585 22.208 9.22703 23.5893 9.17171C24.4037 9.1389 25.1976 9.10768 26.0275 9.21515C25.554 9.55351 25.0909 9.94074 24.6434 10.3883L19.8438 15.1877C17.859 17.1725 17.8591 20.4022 19.8438 22.387C21.8334 24.3766 25.0535 24.3766 27.0431 22.387L31.8426 17.5875C32.5059 16.9243 33.5791 16.9242 34.2423 17.5875L48.6409 31.9861C49.3026 32.6478 49.3026 33.7243 48.641 34.3859ZM40.3732 8.82124C40.8379 8.49657 40.7413 8.55834 44.173 5.12689C45.7298 6.68373 44.0998 5.06048 53.8153 14.7237L50.0286 18.4767L40.3732 8.82124Z" fill="white"/>
    </g>
  </symbol>

  <symbol id="about-3" viewBox="0 0 50 50">
    <g>
      <path d="M45.1172 10.9375H40.4297C37.7373 10.9375 35.5469 13.1279 35.5469 15.8203V45.1172C35.5469 47.8096 37.7373 50 40.4297 50H45.1172C47.8096 50 50 47.8096 50 45.1172V15.8203C50 13.1279 47.8096 10.9375 45.1172 10.9375ZM46.0938 45.1172C46.0938 45.6557 45.6557 46.0938 45.1172 46.0938H40.4297C39.8912 46.0938 39.4531 45.6557 39.4531 45.1172V15.8203C39.4531 15.2818 39.8912 14.8438 40.4297 14.8438H45.1172C45.6557 14.8438 46.0938 15.2818 46.0938 15.8203V45.1172Z" fill="white"/>
      <path d="M9.57031 25.7812H4.88281C2.19043 25.7812 0 27.9717 0 30.6641V45.1172C0 47.8096 2.19043 50 4.88281 50H9.57031C12.2627 50 14.4531 47.8096 14.4531 45.1172V30.6641C14.4531 27.9717 12.2627 25.7812 9.57031 25.7812ZM10.5469 45.1172C10.5469 45.6557 10.1088 46.0938 9.57031 46.0938H4.88281C4.34434 46.0938 3.90625 45.6557 3.90625 45.1172V30.6641C3.90625 30.1256 4.34434 29.6875 4.88281 29.6875H9.57031C10.1088 29.6875 10.5469 30.1256 10.5469 30.6641V45.1172Z" fill="white"/>
      <path d="M27.3438 0H22.6562C19.9639 0 17.7734 2.19043 17.7734 4.88281V45.1172C17.7734 47.8096 19.9639 50 22.6562 50H27.3438C30.0361 50 32.2266 47.8096 32.2266 45.1172V4.88281C32.2266 2.19043 30.0361 0 27.3438 0ZM28.3203 45.1172C28.3203 45.6557 27.8822 46.0938 27.3438 46.0938H22.6562C22.1178 46.0938 21.6797 45.6557 21.6797 45.1172V4.88281C21.6797 4.34434 22.1178 3.90625 22.6562 3.90625H27.3438C27.8822 3.90625 28.3203 4.34434 28.3203 4.88281V45.1172Z" fill="white"/>
    </g>
  </symbol>

   <symbol id="facebook" viewBox="0 0 14 30">
    <g>
      <path d="M12.9907 14.652H8.97585V29.3605H2.89302V14.652H0V9.48283H2.89302V6.13779C2.89302 3.74572 4.02929 0 9.03 0L13.5358 0.0188505V5.03641H10.2665C9.73029 5.03641 8.97626 5.30433 8.97626 6.44542V9.48764H13.5221L12.9907 14.652Z"/>
    </g>
  </symbol>

  <symbol id="instagram" viewBox="0 0 27 27">
    <g>
      <path d="M21.2653 0.84082H5.73331C3.03472 0.84082 0.840942 3.03599 0.840942 5.73319V21.2667C0.840942 23.9653 3.03611 26.159 5.73331 26.159H21.2668C23.9654 26.159 26.1592 23.9639 26.1592 21.2667V5.73319C26.159 3.03599 23.9638 0.84082 21.2653 0.84082ZM22.8066 3.67163L23.3606 3.67024V7.87213L19.1279 7.88619L19.1138 3.6843L22.8066 3.67163ZM13.5001 9.26422C17.0115 9.26422 17.7356 12.5604 17.7356 13.5012C17.7356 15.8341 15.8344 17.7353 13.5001 17.7353C11.1643 17.7353 9.26449 15.8341 9.26449 13.5012C9.26295 12.5604 9.98865 9.26422 13.5001 9.26422ZM23.3846 20.9601C23.3846 22.2975 22.2976 23.3858 20.9574 23.3858H5.99483C4.65604 23.3858 3.56764 22.2988 3.56764 20.9601V10.6818H7.08322C6.75698 11.4847 6.5727 12.5816 6.5727 13.5013C6.5727 17.318 9.6777 20.4244 13.4957 20.4244C17.3138 20.4244 20.4172 17.318 20.4172 13.5013C20.4172 12.5816 20.2329 11.4847 19.9081 10.6818H23.3815V20.9601H23.3846Z"/>
    </g>
  </symbol>

  <symbol id="footer-phone" viewBox="0 0 28 26">
    <g>
      <path d="M26.5978 21.7729C26.055 23.3057 23.9006 24.577 22.1821 24.9482C21.0065 25.1985 19.4709 25.3982 14.3015 23.2551C7.68933 20.5157 3.43121 13.7966 3.09933 13.3607C2.78152 12.9248 0.42746 9.80289 0.42746 6.57414C0.42746 3.34539 2.06715 1.7732 2.72808 1.0982C3.2709 0.544141 4.16808 0.291016 5.02871 0.291016C5.30715 0.291016 5.55746 0.305078 5.78246 0.316328C6.4434 0.344453 6.77527 0.383829 7.21121 1.42727C7.75402 2.73508 9.0759 5.96383 9.2334 6.2957C9.39371 6.62758 9.55402 7.07758 9.32902 7.51352C9.11808 7.96352 8.93246 8.1632 8.60058 8.5457C8.26871 8.9282 7.95371 9.2207 7.62183 9.63133C7.31808 9.98852 6.97496 10.371 7.35746 11.032C7.73996 11.6788 9.06183 13.836 11.0081 15.5685C13.5196 17.8045 15.5559 18.5188 16.2843 18.8226C16.8271 19.0476 17.474 18.9941 17.8706 18.5723C18.374 18.0295 18.9956 17.1295 19.6284 16.2435C20.0784 15.6079 20.6465 15.5291 21.2428 15.7541C21.8503 15.9651 25.065 17.5541 25.7259 17.8832C26.3868 18.2151 26.8228 18.3726 26.9831 18.651C27.1406 18.9295 27.1406 20.2373 26.5978 21.7729Z"/>
    </g>
  </symbol>

  <symbol id="vk" viewBox="0 0 30 18">
    <g>
      <path fill-rule="evenodd" clip-rule="evenodd" d="M14.6501 17.3684H16.416C16.416 17.3684 16.9495 17.3099 17.2218 17.0163C17.4725 16.7468 17.4645 16.2406 17.4645 16.2406C17.4645 16.2406 17.43 13.871 18.5298 13.5221C19.6139 13.1783 21.006 15.8122 22.4816 16.825C23.5974 17.5914 24.4453 17.4234 24.4453 17.4234L28.3908 17.3684C28.3908 17.3684 30.4548 17.2413 29.4761 15.6185C29.3959 15.4858 28.9062 14.4181 26.5426 12.2241C24.0687 9.92794 24.4 10.2993 27.3801 6.32741C29.195 3.90847 29.9205 2.43168 29.6939 1.79917C29.4777 1.19675 28.1429 1.35598 28.1429 1.35598L23.7005 1.38365C23.7005 1.38365 23.3712 1.33873 23.127 1.48472C22.8883 1.62791 22.7347 1.96161 22.7347 1.96161C22.7347 1.96161 22.0316 3.83347 21.0939 5.42537C19.1157 8.78445 18.3248 8.96173 18.0015 8.75317C17.2495 8.26705 17.4372 6.80029 17.4372 5.75827C17.4372 2.50308 17.9309 1.14581 16.4758 0.794461C15.9929 0.677745 15.6375 0.600737 14.4026 0.588304C12.8175 0.571859 11.4759 0.593116 10.7162 0.965322C10.2109 1.21279 9.82102 1.76428 10.0585 1.79597C10.3521 1.83527 11.017 1.97525 11.3696 2.45535C11.8248 3.07462 11.8088 4.46558 11.8088 4.46558C11.8088 4.46558 12.0703 8.29753 11.1979 8.77362C10.5991 9.1001 9.7777 8.4335 8.01413 5.38607C7.11049 3.82505 6.42825 2.09959 6.42825 2.09959C6.42825 2.09959 6.2967 1.77711 6.06206 1.60465C5.77729 1.39568 5.37942 1.32911 5.37942 1.32911L1.15801 1.35678C1.15801 1.35678 0.524297 1.37443 0.291669 1.64997C0.0847095 1.89503 0.275224 2.402 0.275224 2.402C0.275224 2.402 3.58015 10.1341 7.32227 14.0306C10.7535 17.6031 14.6501 17.3684 14.6501 17.3684Z"/>
    </g>
  </symbol>

  <symbol id="user" viewBox="0 0 24 24">
    <g>
      <path d="M11.829 11.5609C13.4172 11.5609 14.7924 10.9913 15.9163 9.86735C17.0398 8.74364 17.6096 7.3687 17.6096 5.78026C17.6096 4.19237 17.04 2.81726 15.9161 1.69317C14.7922 0.56964 13.4171 0 11.829 0C10.2405 0 8.8656 0.56964 7.74188 1.69336C6.61816 2.81707 6.04834 4.19219 6.04834 5.78026C6.04834 7.3687 6.61816 8.74382 7.74188 9.86753C8.86597 10.9911 10.2411 11.5609 11.829 11.5609ZM8.73651 2.6878C9.59875 1.82556 10.6102 1.40643 11.829 1.40643C13.0475 1.40643 14.0592 1.82556 14.9216 2.6878C15.7839 3.55023 16.2032 4.56188 16.2032 5.78026C16.2032 6.99901 15.7839 8.01048 14.9216 8.87291C14.0592 9.73533 13.0475 10.1545 11.829 10.1545C10.6106 10.1545 9.59912 9.73515 8.73651 8.87291C7.87408 8.01067 7.45477 6.99901 7.45477 5.78026C7.45477 4.56188 7.87408 3.55023 8.73651 2.6878Z" fill="#7B7B7B"/>
      <path d="M21.9435 18.4546C21.9111 17.987 21.8456 17.4769 21.7491 16.9382C21.6517 16.3954 21.5262 15.8824 21.3761 15.4134C21.2208 14.9288 21.0101 14.4501 20.7491 13.9915C20.4787 13.5154 20.1608 13.1008 19.8041 12.7597C19.4312 12.4028 18.9745 12.1159 18.4464 11.9066C17.9202 11.6984 17.337 11.593 16.7131 11.593C16.4681 11.593 16.2312 11.6935 15.7736 11.9914C15.492 12.175 15.1626 12.3874 14.7949 12.6224C14.4805 12.8227 14.0546 13.0104 13.5286 13.1803C13.0153 13.3464 12.4942 13.4306 11.9797 13.4306C11.4655 13.4306 10.9444 13.3464 10.4308 13.1803C9.90527 13.0106 9.47919 12.8229 9.16534 12.6226C8.80115 12.3898 8.47156 12.1774 8.18573 11.9912C7.72852 11.6933 7.49158 11.5928 7.24658 11.5928C6.62256 11.5928 6.03955 11.6984 5.51349 11.9068C4.98578 12.1157 4.52893 12.4026 4.15558 12.7599C3.79889 13.1012 3.48102 13.5156 3.21075 13.9915C2.9502 14.4501 2.73926 14.9286 2.58398 15.4136C2.43402 15.8826 2.30859 16.3954 2.21118 16.9382C2.1145 17.4761 2.04913 17.9864 2.01672 18.4552C1.98486 18.9135 1.96875 19.3905 1.96875 19.8724C1.96875 21.1252 2.367 22.1394 3.15234 22.8874C3.92798 23.6255 4.9541 23.9998 6.20233 23.9998H17.7585C19.0063 23.9998 20.0325 23.6255 20.8083 22.8874C21.5938 22.14 21.9921 21.1254 21.9921 19.8722C21.9919 19.3887 21.9756 18.9117 21.9435 18.4546ZM19.8386 21.8684C19.326 22.3562 18.6456 22.5934 17.7583 22.5934H6.20233C5.31482 22.5934 4.6344 22.3562 4.12207 21.8686C3.61945 21.3902 3.37518 20.737 3.37518 19.8724C3.37518 19.4227 3.39001 18.9787 3.41968 18.5524C3.44861 18.1342 3.50775 17.6748 3.59546 17.1866C3.68207 16.7045 3.7923 16.2521 3.9234 15.8425C4.04919 15.4497 4.22076 15.0608 4.43353 14.6862C4.6366 14.3291 4.87024 14.0228 5.12805 13.7759C5.3692 13.545 5.67316 13.3561 6.03131 13.2144C6.36255 13.0832 6.7348 13.0115 7.13892 13.0007C7.18817 13.0269 7.27588 13.0768 7.41797 13.1695C7.70709 13.3579 8.04034 13.5729 8.40875 13.8082C8.82404 14.0729 9.35907 14.3121 9.99829 14.5184C10.6518 14.7297 11.3183 14.837 11.9799 14.837C12.6414 14.837 13.3081 14.7297 13.9612 14.5186C14.601 14.3119 15.1359 14.0729 15.5517 13.8078C15.9287 13.5668 16.2526 13.3581 16.5417 13.1695C16.6838 13.077 16.7715 13.0269 16.8208 13.0007C17.2251 13.0115 17.5974 13.0832 17.9288 13.2144C18.2867 13.3561 18.5907 13.5452 18.8318 13.7759C19.0897 14.0226 19.3233 14.3289 19.5264 14.6863C19.7393 15.0608 19.9111 15.4499 20.0367 15.8423C20.168 16.2524 20.2784 16.7047 20.3648 17.1865C20.4523 17.6755 20.5117 18.1351 20.5406 18.5526C20.5704 18.9772 20.5854 19.4214 20.5856 19.8724C20.5854 20.7372 20.3412 21.3902 19.8386 21.8684Z" fill="#7B7B7B"/>
    </g>
  </symbol>

  <symbol id="form-phone" viewBox="0 0 22 22">
    <g>
      <path d="M15.8117 22C15.1016 22 14.3974 21.8745 13.7089 21.6243C10.6755 20.5224 7.85989 18.7276 5.56631 16.4341C3.27273 14.1406 1.478 11.3249 0.376112 8.29151C0.0220209 7.31668 -0.0824749 6.31039 0.0656324 5.30049C0.204373 4.35453 0.570795 3.4362 1.12533 2.64475C1.68231 1.84981 2.42486 1.18864 3.27269 0.732716C4.1768 0.246545 5.16362 0 6.20583 0C6.52997 0 6.81012 0.226479 6.87805 0.543404L7.95712 5.57909C8.00597 5.80712 7.9359 6.04438 7.77103 6.20929L5.92719 8.05309C7.66658 11.5113 10.489 14.3337 13.9472 16.0731L15.791 14.2293C15.9559 14.0644 16.1932 13.9944 16.4212 14.0432L21.4569 15.1223C21.7739 15.1902 22.0003 15.4704 22.0003 15.7945C22.0003 16.8367 21.7538 17.8236 21.2676 18.7277C20.8116 19.5755 20.1505 20.3181 19.3555 20.875C18.5641 21.4296 17.6458 21.796 16.6998 21.9347C16.4034 21.9783 16.107 22 15.8117 22ZM5.65654 1.40502C4.28181 1.55678 3.06163 2.27734 2.25136 3.43379C1.34021 4.73419 1.12773 6.33363 1.66843 7.8221C3.78687 13.6538 8.34657 18.2135 14.1783 20.332C15.6667 20.8727 17.2662 20.6602 18.5666 19.749C19.7231 18.9388 20.4436 17.7186 20.5954 16.3439L16.4989 15.4661L14.5733 17.3917C14.3684 17.5966 14.057 17.651 13.7948 17.5278C9.7048 15.6063 6.39411 12.2956 4.47263 8.20558C4.34944 7.94335 4.40384 7.63201 4.60875 7.42714L6.53436 5.50154L5.65654 1.40502Z" fill="#7B7B7B"/>
    </g>
  </symbol>

   <symbol id="datepicker" viewBox="0 0 23 23">
    <g>
      <path d="M20.125 14.4128V4.3125C20.125 3.32176 19.3189 2.51562 18.3281 2.51562H17.6094V1.79688C17.6094 1.20236 17.1258 0.71875 16.5312 0.71875C15.9367 0.71875 15.4531 1.20236 15.4531 1.79688V2.51562H13.6562V1.79688C13.6562 1.20236 13.1726 0.71875 12.5781 0.71875C11.9836 0.71875 11.5 1.20236 11.5 1.79688V2.51562H9.34375V1.79688C9.34375 1.20236 8.86014 0.71875 8.26562 0.71875C7.67111 0.71875 7.1875 1.20236 7.1875 1.79688V2.51562H5.39062V1.79688C5.39062 1.20236 4.90701 0.71875 4.3125 0.71875C3.71799 0.71875 3.23438 1.20236 3.23438 1.79688V2.51562H2.51562C1.52489 2.51562 0.71875 3.32176 0.71875 4.3125V18.6875C0.71875 19.6782 1.52489 20.4844 2.51562 20.4844H14.5991C15.3461 21.7712 16.736 22.6406 18.3281 22.6406C20.7062 22.6406 22.6406 20.7062 22.6406 18.3281C22.6406 16.5918 21.6072 15.0959 20.125 14.4128ZM16.1719 1.79688C16.1719 1.59859 16.333 1.4375 16.5312 1.4375C16.7295 1.4375 16.8906 1.59859 16.8906 1.79688V3.95312C16.8906 4.15141 16.7295 4.3125 16.5312 4.3125C16.333 4.3125 16.1719 4.15141 16.1719 3.95312V1.79688ZM12.2188 1.79688C12.2188 1.59859 12.3798 1.4375 12.5781 1.4375C12.7764 1.4375 12.9375 1.59859 12.9375 1.79688V3.95312C12.9375 4.15141 12.7764 4.3125 12.5781 4.3125C12.3798 4.3125 12.2188 4.15141 12.2188 3.95312V1.79688ZM7.90625 1.79688C7.90625 1.59859 8.06734 1.4375 8.26562 1.4375C8.46391 1.4375 8.625 1.59859 8.625 1.79688V3.95312C8.625 4.15141 8.46391 4.3125 8.26562 4.3125C8.06734 4.3125 7.90625 4.15141 7.90625 3.95312V1.79688ZM3.95312 1.79688C3.95312 1.59859 4.11421 1.4375 4.3125 1.4375C4.51079 1.4375 4.67188 1.59859 4.67188 1.79688V3.95312C4.67188 4.15141 4.51079 4.3125 4.3125 4.3125C4.11421 4.3125 3.95312 4.15141 3.95312 3.95312V1.79688ZM2.51562 3.23438H3.23438V3.95312C3.23438 4.54764 3.71799 5.03125 4.3125 5.03125C4.90701 5.03125 5.39062 4.54764 5.39062 3.95312V3.23438H7.1875V3.95312C7.1875 4.54764 7.67111 5.03125 8.26562 5.03125C8.86014 5.03125 9.34375 4.54764 9.34375 3.95312V3.23438H11.5V3.95312C11.5 4.54764 11.9836 5.03125 12.5781 5.03125C13.1726 5.03125 13.6562 4.54764 13.6562 3.95312V3.23438H15.4531V3.95312C15.4531 4.54764 15.9367 5.03125 16.5312 5.03125C17.1258 5.03125 17.6094 4.54764 17.6094 3.95312V3.23438H18.3281C18.9226 3.23438 19.4062 3.71799 19.4062 4.3125V6.10938H1.4375V4.3125C1.4375 3.71799 1.92111 3.23438 2.51562 3.23438ZM2.51562 19.7656C1.92111 19.7656 1.4375 19.282 1.4375 18.6875V6.82812H19.4062V14.1575C19.061 14.0682 18.701 14.0156 18.3281 14.0156C18.0827 14.0156 17.8437 14.041 17.6094 14.0805V12.2188C17.6094 12.0201 17.4486 11.8594 17.25 11.8594H15.0938C14.8951 11.8594 14.7344 12.0201 14.7344 12.2188V14.375C14.7344 14.5736 14.8951 14.7344 15.0938 14.7344H15.9494C14.7853 15.5074 14.0156 16.829 14.0156 18.3281C14.0156 18.8327 14.1072 19.3152 14.2672 19.7656H2.51562ZM16.8906 14.0156H15.4531V12.5781H16.8906V14.0156ZM18.3281 21.9219C16.3467 21.9219 14.7344 20.3096 14.7344 18.3281C14.7344 16.3467 16.3467 14.7344 18.3281 14.7344C20.3096 14.7344 21.9219 16.3467 21.9219 18.3281C21.9219 20.3096 20.3096 21.9219 18.3281 21.9219Z" fill="#7B7B7B"/>
      <path d="M18.6875 17.7091V15.4531H17.9688V17.7091C17.7548 17.8336 17.6094 18.0627 17.6094 18.3281C17.6094 18.3645 17.6149 18.3994 17.6201 18.4343L16.3066 19.4849L16.7559 20.0464L18.0682 18.9965C18.149 19.028 18.2362 19.0469 18.3281 19.0469C18.7251 19.0469 19.0469 18.7251 19.0469 18.3281C19.0469 18.0627 18.9014 17.8336 18.6875 17.7091Z" fill="#7B7B7B"/>
      <path d="M5.39062 7.90625H3.23438C3.03574 7.90625 2.875 8.06699 2.875 8.26562V10.4219C2.875 10.6205 3.03574 10.7812 3.23438 10.7812H5.39062C5.58926 10.7812 5.75 10.6205 5.75 10.4219V8.26562C5.75 8.06699 5.58926 7.90625 5.39062 7.90625ZM5.03125 10.0625H3.59375V8.625H5.03125V10.0625Z" fill="#7B7B7B"/>
      <path d="M9.34375 7.90625H7.1875C6.98886 7.90625 6.82812 8.06699 6.82812 8.26562V10.4219C6.82812 10.6205 6.98886 10.7812 7.1875 10.7812H9.34375C9.54239 10.7812 9.70312 10.6205 9.70312 10.4219V8.26562C9.70312 8.06699 9.54239 7.90625 9.34375 7.90625ZM8.98438 10.0625H7.54688V8.625H8.98438V10.0625Z" fill="#7B7B7B"/>
      <path d="M13.2969 7.90625H11.1406C10.942 7.90625 10.7812 8.06699 10.7812 8.26562V10.4219C10.7812 10.6205 10.942 10.7812 11.1406 10.7812H13.2969C13.4955 10.7812 13.6562 10.6205 13.6562 10.4219V8.26562C13.6562 8.06699 13.4955 7.90625 13.2969 7.90625ZM12.9375 10.0625H11.5V8.625H12.9375V10.0625Z" fill="#7B7B7B"/>
      <path d="M15.0938 10.7812H17.25C17.4486 10.7812 17.6094 10.6205 17.6094 10.4219V8.26562C17.6094 8.06699 17.4486 7.90625 17.25 7.90625H15.0938C14.8951 7.90625 14.7344 8.06699 14.7344 8.26562V10.4219C14.7344 10.6205 14.8951 10.7812 15.0938 10.7812ZM15.4531 8.625H16.8906V10.0625H15.4531V8.625Z" fill="#7B7B7B"/>
      <path d="M5.39062 11.8594H3.23438C3.03574 11.8594 2.875 12.0201 2.875 12.2188V14.375C2.875 14.5736 3.03574 14.7344 3.23438 14.7344H5.39062C5.58926 14.7344 5.75 14.5736 5.75 14.375V12.2188C5.75 12.0201 5.58926 11.8594 5.39062 11.8594ZM5.03125 14.0156H3.59375V12.5781H5.03125V14.0156Z" fill="#7B7B7B"/>
      <path d="M9.34375 11.8594H7.1875C6.98886 11.8594 6.82812 12.0201 6.82812 12.2188V14.375C6.82812 14.5736 6.98886 14.7344 7.1875 14.7344H9.34375C9.54239 14.7344 9.70312 14.5736 9.70312 14.375V12.2188C9.70312 12.0201 9.54239 11.8594 9.34375 11.8594ZM8.98438 14.0156H7.54688V12.5781H8.98438V14.0156Z" fill="#7B7B7B"/>
      <path d="M13.2969 11.8594H11.1406C10.942 11.8594 10.7812 12.0201 10.7812 12.2188V14.375C10.7812 14.5736 10.942 14.7344 11.1406 14.7344H13.2969C13.4955 14.7344 13.6562 14.5736 13.6562 14.375V12.2188C13.6562 12.0201 13.4955 11.8594 13.2969 11.8594ZM12.9375 14.0156H11.5V12.5781H12.9375V14.0156Z" fill="#7B7B7B"/>
      <path d="M5.39062 15.8125H3.23438C3.03574 15.8125 2.875 15.9732 2.875 16.1719V18.3281C2.875 18.5268 3.03574 18.6875 3.23438 18.6875H5.39062C5.58926 18.6875 5.75 18.5268 5.75 18.3281V16.1719C5.75 15.9732 5.58926 15.8125 5.39062 15.8125ZM5.03125 17.9688H3.59375V16.5312H5.03125V17.9688Z" fill="#7B7B7B"/>
      <path d="M9.34375 15.8125H7.1875C6.98886 15.8125 6.82812 15.9732 6.82812 16.1719V18.3281C6.82812 18.5268 6.98886 18.6875 7.1875 18.6875H9.34375C9.54239 18.6875 9.70312 18.5268 9.70312 18.3281V16.1719C9.70312 15.9732 9.54239 15.8125 9.34375 15.8125ZM8.98438 17.9688H7.54688V16.5312H8.98438V17.9688Z" fill="#7B7B7B"/>
      <path d="M13.2969 15.8125H11.1406C10.942 15.8125 10.7812 15.9732 10.7812 16.1719V18.3281C10.7812 18.5268 10.942 18.6875 11.1406 18.6875H13.2969C13.4955 18.6875 13.6562 18.5268 13.6562 18.3281V16.1719C13.6562 15.9732 13.4955 15.8125 13.2969 15.8125ZM12.9375 17.9688H11.5V16.5312H12.9375V17.9688Z" fill="#7B7B7B"/>
    </g>
  </symbol>

  <symbol id="modal-user" viewBox="-42 0 512 512.002">
    <g>
      <path d="m210.351562 246.632812c33.882813 0 63.222657-12.152343 87.195313-36.128906 23.972656-23.972656 36.125-53.304687 36.125-87.191406 0-33.875-12.152344-63.210938-36.128906-87.191406-23.976563-23.96875-53.3125-36.121094-87.191407-36.121094-33.886718 0-63.21875 12.152344-87.191406 36.125s-36.128906 53.308594-36.128906 87.1875c0 33.886719 12.15625 63.222656 36.132812 87.195312 23.976563 23.96875 53.3125 36.125 87.1875 36.125zm0 0"/>
      <path d="m426.128906 393.703125c-.691406-9.976563-2.089844-20.859375-4.148437-32.351563-2.078125-11.578124-4.753907-22.523437-7.957031-32.527343-3.308594-10.339844-7.808594-20.550781-13.371094-30.335938-5.773438-10.15625-12.554688-19-20.164063-26.277343-7.957031-7.613282-17.699219-13.734376-28.964843-18.199219-11.226563-4.441407-23.667969-6.691407-36.976563-6.691407-5.226563 0-10.28125 2.144532-20.042969 8.5-6.007812 3.917969-13.035156 8.449219-20.878906 13.460938-6.707031 4.273438-15.792969 8.277344-27.015625 11.902344-10.949219 3.542968-22.066406 5.339844-33.039063 5.339844-10.972656 0-22.085937-1.796876-33.046874-5.339844-11.210938-3.621094-20.296876-7.625-26.996094-11.898438-7.769532-4.964844-14.800782-9.496094-20.898438-13.46875-9.75-6.355468-14.808594-8.5-20.035156-8.5-13.3125 0-25.75 2.253906-36.972656 6.699219-11.257813 4.457031-21.003906 10.578125-28.96875 18.199219-7.605469 7.28125-14.390625 16.121094-20.15625 26.273437-5.558594 9.785157-10.058594 19.992188-13.371094 30.339844-3.199219 10.003906-5.875 20.945313-7.953125 32.523437-2.058594 11.476563-3.457031 22.363282-4.148437 32.363282-.679688 9.796875-1.023438 19.964844-1.023438 30.234375 0 26.726562 8.496094 48.363281 25.25 64.320312 16.546875 15.746094 38.441406 23.734375 65.066406 23.734375h246.53125c26.625 0 48.511719-7.984375 65.0625-23.734375 16.757813-15.945312 25.253906-37.585937 25.253906-64.324219-.003906-10.316406-.351562-20.492187-1.035156-30.242187zm0 0"/>
    </g>
  </symbol>

  <symbol id="modal-phone" viewBox="0 0 513.64 513.64">
    <g>
      <path d="M499.66,376.96l-71.68-71.68c-25.6-25.6-69.12-15.359-79.36,17.92c-7.68,23.041-33.28,35.841-56.32,30.72c-51.2-12.8-120.32-79.36-133.12-133.12c-7.68-23.041,7.68-48.641,30.72-56.32c33.28-10.24,43.52-53.76,17.92-79.36l-71.68-71.68c-20.48-17.92-51.2-17.92-69.12,0l-48.64,48.64c-48.64,51.2,5.12,186.88,125.44,307.2c120.32,120.32,256,176.641,307.2,125.44l48.64-48.64C517.581,425.6,517.581,394.88,499.66,376.96z"/>
    </g>
  </symbol>

  <symbol id="modal-at" viewBox="0 0 512 512">
    <g>
      <path d="M371.496,485.52C327.36,505.384,289.104,512,236.872,512C114.76,512,7.352,424.456,7.352,280.28C7.352,130.208,116.224,0,282.488,0c129.472,0,222.16,89.016,222.16,212.6c0,107.4-60.32,175.08-139.768,175.08c-34.576,0-59.584-17.656-63.264-56.648h-1.472c-22.8,37.52-55.904,56.648-94.896,56.648c-47.816,0-82.392-35.312-82.392-95.64c0-89.744,66.208-171.4,172.136-171.4c32.368,0,69.144,8.096,87.544,18.392l-22.064,136.096c-7.352,43.392-2.208,63.264,18.392,63.992c31.632,0.736,71.352-39.728,71.352-124.32c0-95.632-61.792-169.936-175.824-169.936c-112.544,0-211.128,88.28-211.128,228.784c0,122.848,78.712,192.736,188.328,192.736c37.52,0,77.248-8.088,106.664-23.544L371.496,485.52z M306.024,181.704c-5.888-1.472-13.248-2.944-22.808-2.944c-48.544,0-86.808,47.816-86.808,104.456c0,27.952,12.512,45.608,36.784,45.608c27.216,0,55.912-34.576,62.528-77.24L306.024,181.704z"/>
    </g>
  </symbol>

  <symbol id="modal-message" viewBox="0 0 512 512">
    <g>
      <path d="M507.49,101.721L352.211,256L507.49,410.279c2.807-5.867,4.51-12.353,4.51-19.279V121C512,114.073,510.297,107.588,507.49,101.721z"/>
      <path d="M467,76H45c-6.927,0-13.412,1.703-19.279,4.51l198.463,197.463c17.548,17.548,46.084,17.548,63.632,0L486.279,80.51C480.412,77.703,473.927,76,467,76z"/>
      <path d="M4.51,101.721C1.703,107.588,0,114.073,0,121v270c0,6.927,1.703,13.413,4.51,19.279L159.789,256L4.51,101.721z"/>
      <path d="M331,277.211l-21.973,21.973c-29.239,29.239-76.816,29.239-106.055,0L181,277.211L25.721,431.49C31.588,434.297,38.073,436,45,436h422c6.927,0,13.412-1.703,19.279-4.51L331,277.211z"/>
    </g>
  </symbol>
</svg>